<svg xmlns="http://www.w3.org/2000/svg" viewBox="0 0 792 612"><defs><style>.cls-1{fill:#9a67a6;}.cls-2{fill:#090c0b;}.cls-3{fill:#86766a;}.cls-4{fill:#fff;}.cls-5{fill:#f4e910;}.cls-6{fill:#ee9821;}</style></defs><title>Thumbs half down 1</title><g id="Layer_4" data-name="Layer 4"><path class="cls-1" d="M240.81,527.59c-1.48-2.33-1.2-2.12-2.8-4.63l.22-1.33-2-3.17.26-1.44-1-1.57.25-1.45-.94-1.48.13-1.51c-.73-.66.11-1.55-.29-2.19s-.12-1.19-.09-1.8c0-.44-.53-.76-.39-1.28.08-.31.14-.62.21-1l-.49-.78.54-2.75-.45-.89.53-2.37c-.14-.55-.58-1-.33-1.73a14.25,14.25,0,0,0,.44-1.88l-.49-.77,4-17.87.74-.57.68-2.72.77-.49.53-2.39c.23-.53,1.06-.68,1-1.43s.82-.87,1-1.45c.15-.43,0-1,.55-1.23.72-.34.57-1.06.79-1.64l.78-.5.36-1.4,1.58-1A2.18,2.18,0,0,1,248,459l.25-1.1,1.54-1.09.42-1.24a15.78,15.78,0,0,1,2.32-1.61l.41-1.35,1.53-1,.37-1.41,1.58-1,.36-1.4,2.39-1.52.23-1.05c.84-1.1,2.36-1.41,3.33-2.45l.22-1c1.16-1.25,3-1.71,4.13-3l.23-1.06,5.58-3.55.43-1.44L288.66,423a113.58,113.58,0,0,1,15.14-6.35c-4.76-.3-.64-.1-.64-.1H192.33l-1-1h-2.83l-1.08-1h-1.77l-1.19-.92c-.95.26-1.25-.92-2-.93s-1.05-.7-1.57-.85a2.92,2.92,0,0,1-1.95-1.09h-.95l-3-2.87-.62-.09-2.66-2.18-.15-1.22-2.71-2.71-.06-1-1.92-2-.06-.93-1-1.1v-1.84c-1.14-.61-.86-1.64-.91-2.67l-.9-1.09v-2.72l-1-1.12v-18.2l.93-1v-1.42c-.57-4.34,1.15-8,3.38-11.53,1.34-2.13,3.28-4,3.51-6.92-1.23-2.92-3.49-5.46-5-8.43v-2.38l-1-1v-1.85l-1-1.05v-3.78l-.69-.69c-.08-.12-.24-.25-.24-.37q0-8.56,0-17.11l1-1v-2.38c-.34-8,4.39-13.55,9.47-18.85,1.19-1.24,3-1.89,3.66-4-.54-4.57-5.16-8.35-3.53-13.67v-1.42l-1-1V253.87l1-1v-2.38c0-.86,0-1.72,0-2.58.87-7,5.56-11.91,9.43-17.27-.74-4.07-4.61-6.67-4.66-10.87q0-1.19,0-2.38l-1-1v-2.82l-1-1V194.35l1-1v-1.42c-.84-3.47.22-6.6,1.8-9.59,6.78-12.83,17.94-18.59,32-19.64,2.23-.17,4.48-.07,6.72-.07,63.68,0,127.36-.35,191,.15,30.45.24,60.65,3.79,89.91,13a15.84,15.84,0,0,0,9.41.2c23-6.54,46.58-9.89,70.42-11.54,14.36-1,28.7-2.07,43.1-1.79,2.35,0,4.86-.44,6.84,1.44q0,106.78,0,213.57c-.24.17-.48.48-.73.49-1.44,0-2.88,0-4.32,0h-119a1.45,1.45,0,0,0-.44.17l-1.25,1.31c0,.54.06,1-.42,1.33s-.54,1.06-.6,1.56L500,384.31l-.09,1-.94,1v.89l-1.94,2c0,.53,0,1-.43,1.32s-.51,1.07-.6,1.56l-1.77,1.77-.08,1-1.93,2v.91l-1.72,1.72-.34,1.3-2.72,2.72v1.27l-1.94,1.88-.09.8-2.72,2.71-.06,1-3.61,3.46c-.17.67-.15,1.22-.42,1.51-1.19,1.29-2.45,2.5-3.64,3.68,0,.41.07.84-.09,1-1.55,1.62-3.15,3.19-4.73,4.77l-1.87,1.87-.17,1.13-15.61,15.61-.77.08L446.1,450l-1.35.13L441.89,453l-1.06.1-2.71,2.72-1,.08-2,1.93h-.91l-1.72,1.72-1.3.34-1.7,1.7-1,.07-2,1.91-1,0a3,3,0,0,1-2,1l-1.7,1.7a2.22,2.22,0,0,0-2,1l-1,.06-1,1h-1.23l-1.47,1.88-1.24.15-1.7,1.7-1.09.13-2.86,2.85-.88.06c-2.79,2.79-46.35,37-50.15,36.14l-.76.43-5.15-1.14-.85.47-2.73-.53-.85.47-2.4-.53a2.72,2.72,0,0,1-2.17.25c-.2-.07-.54.24-1.09.5l-2.12-.89-1.19.75-1.38-.25c-.31.17-.64.5-.85.43a4.08,4.08,0,0,0-2.24.18c-.55.12-1.15-.23-1.79.15-.32.2-.9,0-1.51-.06l-1.46.93-1.47-.24c-.22.14-1.06.38-1.29.57l-1.45-.09-1.45,1.18-1.46-.08-1.4,1.14-1.52,0L317.31,516l-1-.1a12.78,12.78,0,0,0-2.35,1.73l-1.41,0-2.12,1.74-1.48-.07L306,521.71l-1.46-.08-3.66,3-1.47-.07-4.4,3.6-1-.1a8.11,8.11,0,0,0-2.27,1.63c-.64.48-1.24,1-1.86,1.51l-2.08,1.7-1.15-.11a1.48,1.48,0,0,0-.41.16l-4.9,4-1.42,0-3.61,3-1.47-.07-2.92,2.39-1.46-.09L269,543.28l-1.48-.07-1.42,1.17c-.67-.05-1.25-.2-1.84.28s-1.58-.29-2.11.54a13.17,13.17,0,0,1-2.86-.14l-.76.62-3.39-.42-.57-.63-2.76-.34-.69-.72c-.85.09-6.88-5-9.56-13.35"/></g><g id="Layer_1" data-name="Layer 1"><path class="cls-2" d="M240.81,510.59c-1.48-2.33-1.2-2.12-2.8-4.63l.22-1.33-2-3.17.26-1.44-1-1.57.25-1.45-.94-1.48.13-1.51c-.73-.66.11-1.55-.29-2.19s-.12-1.19-.09-1.8c0-.44-.53-.76-.39-1.28.08-.31.14-.62.21-1l-.49-.78.54-2.75-.45-.89.53-2.37c-.14-.55-.58-1-.33-1.73a14.25,14.25,0,0,0,.44-1.88l-.49-.77,4-17.87.74-.57.68-2.72.77-.49.53-2.39c.23-.53,1.06-.68,1-1.43s.82-.87,1-1.45c.15-.43,0-1,.55-1.23.72-.34.57-1.06.79-1.64l.78-.5.36-1.4,1.58-1A2.18,2.18,0,0,1,248,442l.25-1.1,1.54-1.09.42-1.24a15.78,15.78,0,0,1,2.32-1.61l.41-1.35,1.53-1,.37-1.41,1.58-1,.36-1.4,2.39-1.52.23-1.05c.84-1.1,2.36-1.41,3.33-2.45l.22-1c1.16-1.25,3-1.71,4.13-3l.23-1.06,5.58-3.55.43-1.44L288.66,406a113.58,113.58,0,0,1,15.14-6.35c-4.76-.3-.64-.1-.64-.1H192.33l-1-1h-2.83l-1.08-1h-1.77l-1.19-.92c-.95.26-1.25-.92-2-.93s-1.05-.7-1.57-.85a2.92,2.92,0,0,1-1.95-1.09h-.95l-3-2.87-.62-.09-2.66-2.18-.15-1.22-2.71-2.71-.06-1-1.92-2-.06-.93-1-1.1v-1.84c-1.14-.61-.86-1.64-.91-2.67l-.9-1.09v-2.72l-1-1.12v-18.2l.93-1v-1.42c-.57-4.34,1.15-8,3.38-11.53,1.34-2.13,3.28-4,3.51-6.92-1.23-2.92-3.49-5.46-5-8.43v-2.38l-1-1v-1.85l-1-1.05v-3.78l-.69-.69c-.08-.12-.24-.25-.24-.37q0-8.56,0-17.11l1-1v-2.38c-.34-8,4.39-13.55,9.47-18.85,1.19-1.24,3-1.89,3.66-4-.54-4.57-5.16-8.35-3.53-13.67v-1.42l-1-1V236.87l1-1v-2.38c0-.86,0-1.72,0-2.58.87-7,5.56-11.91,9.43-17.27-.74-4.07-4.61-6.67-4.66-10.87q0-1.19,0-2.38l-1-1v-2.82l-1-1V177.35l1-1v-1.42c-.84-3.47.22-6.6,1.8-9.59,6.78-12.83,17.94-18.59,32-19.64,2.23-.17,4.48-.07,6.72-.07,63.68,0,127.36-.35,191,.15,30.45.24,60.65,3.79,89.91,13a15.84,15.84,0,0,0,9.41.2c23-6.54,46.58-9.89,70.42-11.54,14.36-1,28.7-2.07,43.1-1.79,2.35,0,4.86-.44,6.84,1.44q0,106.78,0,213.57c-.24.17-.48.48-.73.49-1.44,0-2.88,0-4.32,0h-119a1.45,1.45,0,0,0-.44.17l-1.25,1.31c0,.54.06,1-.42,1.33s-.54,1.06-.6,1.56L500,367.31l-.09,1-.94,1v.89l-1.94,2c0,.53,0,1-.43,1.32s-.51,1.07-.6,1.56l-1.77,1.77-.08,1-1.93,2v.91l-1.72,1.72-.34,1.3-2.72,2.72v1.27l-1.94,1.88-.09.8-2.72,2.71-.06,1-3.61,3.46c-.17.67-.15,1.22-.42,1.51-1.19,1.29-2.45,2.5-3.64,3.68,0,.41.07.84-.09,1-1.55,1.62-3.15,3.19-4.73,4.77l-1.87,1.87-.17,1.13-15.61,15.61-.77.08L446.1,433l-1.35.13L441.89,436l-1.06.1-2.71,2.72-1,.08-2,1.93h-.91l-1.72,1.72-1.3.34-1.7,1.7-1,.07-2,1.91-1,0a3,3,0,0,1-2,1l-1.7,1.7a2.22,2.22,0,0,0-2,1l-1,.06-1,1h-1.23l-1.47,1.88-1.24.15-1.7,1.7-1.09.13-2.86,2.85-.88.06c-2.79,2.79-46.35,37-50.15,36.14l-.76.43-5.15-1.14-.85.47-2.73-.53-.85.47-2.4-.53a2.72,2.72,0,0,1-2.17.25c-.2-.07-.54.24-1.09.5l-2.12-.89-1.19.75-1.38-.25c-.31.17-.64.5-.85.43a4.08,4.08,0,0,0-2.24.18c-.55.12-1.15-.23-1.79.15-.32.2-.9,0-1.51-.06l-1.46.93-1.47-.24c-.22.14-1.06.38-1.29.57l-1.45-.09-1.45,1.18-1.46-.08-1.4,1.14-1.52,0L317.31,499l-1-.1a12.78,12.78,0,0,0-2.35,1.73l-1.41,0-2.12,1.74-1.48-.07L306,504.71l-1.46-.08-3.66,3-1.47-.07-4.4,3.6-1-.1a8.11,8.11,0,0,0-2.27,1.63c-.64.48-1.24,1-1.86,1.51l-2.08,1.7-1.15-.11a1.48,1.48,0,0,0-.41.16l-4.9,4-1.42,0-3.61,3-1.47-.07-2.92,2.39-1.46-.09L269,526.28l-1.48-.07-1.42,1.17c-.67-.05-1.25-.2-1.84.28s-1.58-.29-2.11.54a13.17,13.17,0,0,1-2.86-.14l-.76.62-3.39-.42-.57-.63-2.76-.34-.69-.72c-.85.09-6.88-5-9.56-13.35"/><path class="cls-3" d="M172.6,231.55h1.92a5.45,5.45,0,0,1,0,1.29,1,1,0,0,1-1.88,0A5.44,5.44,0,0,1,172.6,231.55Z"/><path class="cls-4" d="M608.44,186.43H593.58l-1.06,1H579.13l-.78.78c-1.15.39-2.42.08-3.67.14s-2.24,0-3.36,0h-3.69l-.79.79a9.2,9.2,0,0,1-2.8.16c-.8,0-1.6,0-2.4,0a10,10,0,0,0-2.81.15l-.69.69a1.74,1.74,0,0,1-.43.11h-6.31l-1.07.93h-5.66l-1.07,1h-4.76l-1.06,1h-4.75l-.76.76c-1.3.48-2.74-.08-4.12.28l-.68.68c-1.36.46-2.81-.09-4.18.34l-.74.74h-2.77l-1.14,1h-2.78l-1.07,1h-1.88l-1.06,1h-2.79l-1.12,1h-1.82l-.73.73a10.86,10.86,0,0,1-2.91.18l-1.11-.91h-1.75l-1.13-1h-1.83l-1.06-1h-2.84l-1.06-1h-1.87l-.71-.71c-1-.49-2.17,0-3.16-.28l-.74-.74c-.91-.4-1.88,0-3.19-.4l-.82-.67h-3.67l-1.13-1h-3.75l-1.06-1h-3.8l-1.06-1H462l-.78-.78c-1.94-.4-4,.06-6-.24l-.75-.75a21.24,21.24,0,0,0-3.73-.12,14.25,14.25,0,0,1-3.28-.16l-.74-.74H438.2l-1.13-1H426.6l-1.06-1h-37.4l-1.05,1h-4.72l-1.12,1h-2.79l-.73.73c-1.36.47-2.81-.09-4.18.34l-.68.68a15.41,15.41,0,0,1-2.9.13l-1.07.92h-2.78l-1.07,1h-3.8l-1.06,1h-2.8l-1.12,1h-2.71l-1.47,1.37v1l-1,1.09v1.85c-.46.49-1,.83-.93,1.6a7.67,7.67,0,0,1-.06,1.32l-.74.74c-.33.92,0,1.88-.2,2.74.72.91,1.17,2.06,2.44,1.7,1.83,1.83,3.53,3.51,5.2,5.24.17.17.07.6.1,1l.94,1v.9l1,1.07v.9c.4.5,1,.78,1,1.57-.06.55.47.77.89,1.28l.12,3,.77.77a14.33,14.33,0,0,1,.14,2.91l.92,1.07v7.56l1,1.08v12.44l-1,1.05v4.72l-1,1.1V259l-.81.81c0,.36-.06.82-.1,1.27,0,.3,0,.76-.16.87-.75.49-.69,1.33-1,2a3.45,3.45,0,0,1-.7.72v2l2.83,2.83.11,1.07,1.7,1.7a2.25,2.25,0,0,0,1,2l.07,1,1,1v1.88l1,1.06V281l1,1.12v2.79l.83.83c.22,1.92-.05,4,.15,5.91l.77.77a1.71,1.71,0,0,1,.12.43c0,5.6,0,11.2,0,16.87l-.93,1.07v3.73l-1,1.07v2.83l-1,1,0,1c-.39.47-1,.77-.93,1.55s-.89.88-.93,1.52a1.39,1.39,0,0,1-.52,1.23c-.72.47-.23,1.51-1,2a9.2,9.2,0,0,0-1.37,1.34V329l-.94,1v1.92c.63.75,1.49,1.24,1.89,2.14-.26,1.05,1.28,1.41,1,2.48l.91,1.13.05.9,1,1v1.88l1,1.06v1.87l.71.71a3.92,3.92,0,0,1,.21.87c0,1.42,0,2.85,0,4.16l.79.79a1.27,1.27,0,0,1,.16.41q0,5.52,0,11a1.24,1.24,0,0,1-.16.41l-.73.73v3.74l-1,1.13v2.79l-1,1.06v1.88l-1,1-.06,1c-.4.46-1,.78-.91,1.55,0,.13,0,.37-.12.42-1,.49-.59,1.76-1.36,2.32s-.21,1.52-1,2a8.9,8.9,0,0,0-1.37,1.3v1l-8.15,8.15h-1l-5.74,5.76h-1.47v-1.73l1.88-1.47.16-1.23,1.7-1.7a2.19,2.19,0,0,1,1-2l.05-1,1-1v-.92l1-1,.07-1a2.29,2.29,0,0,0,1-1.95c1.07-.58.81-1.6.84-2.63l.91-1.09V378.1l1-1.12v-7.6l1-1.05V354l-1-1.06v-4.7l-1-1.14v-1.81l-.74-.74a1.8,1.8,0,0,1-.16-.41c-.08-.61.22-1.31-.2-1.83a2.57,2.57,0,0,1-.81-1.61c0-.37-.54-.73-.86-1.12l0-.9-1.92-2c0-.51.06-1-.4-1.33a2.83,2.83,0,0,1-.5-.64v-1.83c.38-.65.9-.42,1.47-.49a14.13,14.13,0,0,0,1.23-1.34c.16-.22.09-.6.14-1.06l2.85-2.86.08-1,1.7-1.7a2.38,2.38,0,0,1,1.06-2v-1.86l1-1.11v-1.83l1-1.07v-2.83l1-1.08v-5.69l.72-.72a4.15,4.15,0,0,0,.2-.87c0-1.74,0-3.48,0-5.09l-.84-.84a20.4,20.4,0,0,1-.11-3.74c0-1.1,0-2.19,0-3.1l-.91-.91V288.8l-1-1.11v-1.83l-1-1.07v-1.87l-.95-1-.08-1-1.71-1.71c-.21-.53-.09-1.17-.65-1.64-.86-.71-1.62-1.53-2.38-2.25v-1.05l-1.37-1.37-1.09-.07-1.29-1.57v-1.86c.11-.45,1.32-.7.81-1.7l2-2.13v-1.85l1-1.07A1.5,1.5,0,0,1,351,261c.38-.6.13-1.25.24-2l.82-1a14.45,14.45,0,0,0,.12-2.82l.92-1.08V234.94l-.91-1v-2.81l-1-1.07v-2.83c-.39-.5-1.05-.77-1-1.56.07-.55-.53-.74-.73-1.13s-.19-.88-.38-1.28-.51-.42-.64-.7-.13-.94-.38-1.27a18.56,18.56,0,0,0-1.68-1.73v-.92l-6.19-6.16c-1.15-.26-1.32-.34-2.41-1.66V208c.48-.49,1-.85.93-1.61s1-.84.92-1.52.5-1.1.94-1.59v-1.85l1-1.07V197.5l1-1.06V189.8l.89-1V183l-.78-.78a19.15,19.15,0,0,1-.13-3.71,16.25,16.25,0,0,0-.15-3.29l-.69-.69a14.77,14.77,0,0,1-.13-2.91l-.92-1.07v-2.8c.18-.16.4-.51.63-.52,1.28-.05,2.56,0,3.84,0h68l.83.83a16.84,16.84,0,0,0,3.72.12c1.44,0,2.88,0,4.32,0,1.28,0,2.56,0,3.84,0a19.23,19.23,0,0,1,3.74.11l.72.72a1.67,1.67,0,0,0,.43.12h9.19l1.08.93h7.57l1.08,1h5.71l1.06,1h4.72l1.11,1h4.71l.73.73c1.36.48,2.81-.08,4.18.34l.68.68a14.59,14.59,0,0,0,2.91.13l1.07.92h3.73l1.08,1h2.83l1.06,1H487l1.11,1h2.79l.81.81c.37,0,.82.05,1.28.1.3,0,.76,0,.87.17.49.75,1.34.67,2,1a3.59,3.59,0,0,1,.72.7h2.82l1.07,1h7.65l1-1H511l1.11-1H514c.6-1.12,1.62-.88,2.67-.91l1.11-.89h1.73l1.15-1h2.77l1.07-1h3.79l1.06-1h2.83l.77-.77c1.29-.48,2.74.08,4.11-.27l.72-.72c1.65-.44,3.41.14,5.08-.28l.7-.7a1.68,1.68,0,0,1,.43-.12h5.35l1.07-.93H556l1.07-1h6.67l1.06-1h8.59l.7-.7a1.57,1.57,0,0,1,.38-.23,1.88,1.88,0,0,1,.48,0h11.51a2.2,2.2,0,0,0,.44-.09l.68-.68c3.88-.24,15.4-.26,20.46,0,.13.12.35.23.35.34Q608.45,177.55,608.44,186.43Z"/><path class="cls-5" d="M183.16,361.15v-6.22l1-1.06v-1.8c.35-.43.87-.78.88-1.16a2.64,2.64,0,0,1,.81-1.61,3.61,3.61,0,0,0,.36-1.28l3.05-3.06a3.13,3.13,0,0,0,2-1.06h1.84l1.09-1H197l1.05-1H320.88l1.05,1h2.87a2.16,2.16,0,0,0,2,1,2.75,2.75,0,0,0,1.55.93c1,.15,1.46,1.14,2.11,1.81s1.55,1.06,1.58,2.23c0,.73,1.19,1.06.92,2l.93,1.16v2.76l1,1.06v5.26c-1.84,1.64-4.13,1.54-6.36,1.54q-69.48,0-139,0C187.29,362.69,185,362.79,183.16,361.15Z"/><path class="cls-6" d="M338.68,302.59v7.18l-1,1v1.89c-.61.54-1.22,1.05-.94,1.89-1.22,1.22-2.4,2.3-3.45,3.5a4.18,4.18,0,0,1-2,1c-.27.1-.46.43-.74.71h-1.82l-1.12,1H195.13l-.79-.79-2.18-.25a2.41,2.41,0,0,0-2-1l-1.7-1.7c-1.28-.14-1.28-.14-1.5-1.21,0-.14-.09-.28-.13-.42l-1.7-1.7a2.16,2.16,0,0,0-1-2v-1.88l-1-1v-6.22c1.84-1.64,4.13-1.54,6.36-1.54q71.4,0,142.8,0C334.55,301.05,336.84,300.94,338.68,302.59Z"/><path class="cls-5" d="M338.68,302.59H183.16v-5.26l1-1v-2.85c.61-.54,1.21-1.06.94-1.89l1.78-1.78c.32-1.49.32-1.49,1.63-1.63l1.7-1.7a2.42,2.42,0,0,0,2-1.07H194l1.13-1H327.63l1.12,1h1.82c.28.28.47.61.74.71a4.18,4.18,0,0,1,2,1c1.05,1.2,2.24,2.28,3.37,3.41a2.16,2.16,0,0,0,1,2v1.88l1,1Z"/><path class="cls-6" d="M183.16,361.15H334.84v4.3l-1,1.06v2.82c-.42.5-1,.8-1,1.58s-1.2,1.06-.94,2c-.28.36-.55.74-.85,1.09a5.5,5.5,0,0,1-.68.68c-.72.6-1.16,1.73-2.12,1.78s-1.39,1.38-2.48,1l-1.11.95h-1.84l-1.05,1H196.16l-1.05-1h-1.85l-1.09-1h-1.84l-5.13-5.13a2.21,2.21,0,0,0-1-2v-2.84l-1-1.06Z"/><path class="cls-6" d="M332.92,244v7.18l-1,1.06v1.86c-.42.49-1.05.81-.94,1.58a.77.77,0,0,1-.45.77c-.77.44-.25,1.52-1,2a7.24,7.24,0,0,0-1,.91l-1,.09-1.76,1.76H324l-1.16,1h-2.76l-1.08,1H207.68l-1-1h-2.83l-1.08-1h-1.85l-1.75-1.75c-.53-.21-1.21-.05-1.63-.65a12.94,12.94,0,0,0-1-1c-.31-.34-.57-.72-.86-1.08.26-.94-1-1.22-.94-2s-.53-1.09-1-1.58v-3.78l-1-1.06V244c1.84-1.64,4.13-1.54,6.36-1.54q63.72,0,127.44,0C328.79,242.49,331.08,242.39,332.92,244Z"/><path class="cls-5" d="M332.92,244H192.76v-3.34l1-1.06v-3.78c.43-.49,1-.81,1-1.58s1.2-1.06.94-2c.28-.36.54-.75.86-1.08.77-.81,1.58-1.59,2.37-2.38a2.28,2.28,0,0,0,2-1l1-.08,1-.95h1.87l1-1H320.9l1.08,1h1.85c.49.45.83,1,1.59.95s1.06,1.19,2,.93a6.61,6.61,0,0,1,1.75,1.56,9.33,9.33,0,0,1,.86,1.08c-.26.94,1,1.22.94,2s.54,1.08,1,1.6v1.84l1,1.06Z"/><path class="cls-5" d="M196.6,186.43v-6.22l1-1.06v-1.83l1-1.13v-1.82c.85-.85,1.61-1.67,2.44-2.42s1.16-1.73,2.12-1.78,1.39-1.38,2.48-1l1.1-1h2.81l1-1h98.82l1.08,1h2.81c.49.45.83,1,1.59.95s1.06,1.19,2,.93c.36.29.74.56,1.07.88.81.78,1.59,1.58,2.38,2.37a2.23,2.23,0,0,0,1,2v1.88l1,1.06v8.14c-1.84,1.64-4.13,1.54-6.36,1.54q-56.52,0-113,0C200.73,188,198.44,188.07,196.6,186.43Z"/><path class="cls-6" d="M196.6,186.43H322.36v7.18l-1,1.06v1.88a2.23,2.23,0,0,0-1,2c-.68.68-1.35,1.37-2,2-.45.43-.94.81-1.41,1.21-1.06-.29-1.41,1.26-2.48,1l-1.2.92h-1.76l-1.08,1H210.56l-1-1h-2.88a2.14,2.14,0,0,0-2-1,2.41,2.41,0,0,0-1.55-.92c-.83-.05-1.21-.94-1.78-1.46-.94-.87-1.82-1.8-2.78-2.76v-1.82l-1-1.13v-1.83l-1-1.06Z"/></g><g id="Layer_3" data-name="Layer 3"><path class="cls-6" d="M333.6,479.79s13.85.53,20.08-.2c10.75-1.25,49.85-43.57,49.85-43.57h.92a12.38,12.38,0,0,1,2.11-1.91c.3,0,.75,0,.87-.16a2.92,2.92,0,0,1,2-.95l1.76-1.76h.93l1.07-1h.91l1.84-1.84a2.29,2.29,0,0,0,1.88-.87c.27-.27.84-.25,1.27-.37l1.7-1.7h1.4l1.33-1.89,1.22-.14,2.71-2.72,1-.07,2.86-2.85,1.09-.14,5.43-5.43a1.69,1.69,0,0,1,.39-.22l.53-.07,14.2-14.2L453,397l6.52-6.52c.12-.48.06-1.1.59-1.58,1.17-1.07,2.26-2.23,3.32-3.29l.09-1,3.75-3.75v-1.07c.74-.71,1.51-1.52,2.37-2.23.56-.46.45-1.1.65-1.64l1.71-1.71.09-1,1.93-2v-.91c.81-.94,2-1.57,2.05-3l1.7-1.7.08-1,1.91-2,0-1,1.7-1.7a3.67,3.67,0,0,1,.36-1.27,2.66,2.66,0,0,0,.82-1.61c0-.37.53-.73.85-1.14l.06-.91,1.92-2,.06-1.07c.81-.31.93-1.08,1-1.85l6.14-6.14h.93l1.07-1h.91a2.15,2.15,0,0,1,1.94-1l1-.86H603.36c1.44,0,2.88,0,4.32,0,.26,0,.51-.3.76-.46q0-9.36,0-18.72h-52.3l-1-.94H487.51c.37,1-.21,1.74-1,2.35v.92l-1,1.07V326c-.35.59-1.07.83-1,1.63.08.55-.47.77-.75,1.12s0,1.27-.68,1.64-.32,1.15-.66,1.62l-1.73,1.73v.92l-1,1.07v.92c-1.21.49-.59,2.14-1.71,2.66l-.34,1.3-1.7,1.7-.08,1-.95,1v1.21l-1.89,1.48-.13,1.24-1.7,1.7-.12.91a14.43,14.43,0,0,1-1.92,2.09v1.24l-1.89,1.47-.15,1.24-1.7,1.7-.16,1.24-1.88,1.47v1c-.9,1.72-2.92,2.29-3,4.32l-2.75,2.68v1c-1.25,1.25-2.51,2.48-3.72,3.76-.17.18-.08.6-.13,1.05-1.83,1.83-3.75,3.73-5.64,5.67-.17.17-.08.6-.11.91-4.39,4.6-14.82,15-18,17.88l-.9.14c-1.7,1.7-3.42,3.37-5.07,5.11-.5.52-1.11.43-1.85.73l-3.51,3.62-1,0-2.71,2.72-1.3.34-1.7,1.7h-1c-.77.78-1.61,1.53-2.33,2.39-.47.56-1.13.39-1.64.65l-1.71,1.71-1,.06-1,1h-1.24l-1.46,1.88-1.24.16-1.7,1.7-1.24.14s-27.28,29-42.53,34.25-44.75,7.75-50.75,11.5-7.22,5.12-7.22,5.12l-4.25,3.76h-1.49L286.11,482l-1.07-.07c-.76.24-1.2.94-1.82,1.41a11.59,11.59,0,0,1-2.21,1.74l-1-.06c-1,.44-1.53,1.57-2.64,1.88l-1-.06-1.4,1.24-1.45,0-.69.61-1.41,0-.65.51-3.42-.08-1.28-1.45-1.34-.15L263.53,486l0-1.42c-.64-.79-1.55-1.37-1.12-2.52l-.61-1.2.15-2.41-.59-.67.8-13,.67-.59c.07-1.14.15-2.25.19-3.37,0-.12-.2-.24-.3-.36l-1.78,1.58-.14,1.45-1.37,1.21-.2,1.49-1.36,1.2c0,.24,0,.4,0,.56,0,.95-1.11,1.52-.85,2.56,0,.1-.13.28-.25.36-.66.43-.46,1.11-.55,1.71l-.69.67-.13,1.41-.7.62a14.16,14.16,0,0,1-.3,2.82l-.6.7-.85,13.89.43.63-.18,2.72.84.95,0,1.4.6.77a10.12,10.12,0,0,0,0,2.75l1.12,1.4-.07,1.12a2.19,2.19,0,0,1,.54,2.18l1.88,2.13,0,1.43,1.26,1.43,1.92.12.78-.59c.44,0,1.19.26,1.68.32l2.3-1.66,1.44.18,3.83-2.76,1.48.15c1.81-1.3,2.79-4.56,4.55-5.83l1,.17a9,9,0,0,0,2.37-1.5c.67-.44,1.29-.95,2-1.39a10.2,10.2,0,0,1,2.36-1.52l1,.17c1.73-1,3.19-2.47,4.93-3.32l1.13.18,3.85-2.77,1.45.18,3.08-2.22,1.44.18,2.27-1.63,1.49.15,2.21-1.59,1.41.09a11.47,11.47,0,0,1,2.47-1.57l1,.17,1.47-1.06,1.5.14,1.48-1.07,1.44.18,1.53-1.1,1.39.18.79-.5,1.46.14,1.47-1.06c.24,0,.4.05.55.09.92.23,1.72-.75,2.68-.27.09,0,.31-.06.4-.16.56-.55,1.19-.2,1.79-.16l.81-.52,1.4.18Z"/></g><g id="Layer_2" data-name="Layer 2"><path class="cls-5" d="M338.87,405.5c0-.44.83-2.37.86-2.67.45-.45.89-.92,1.37-1.35.09-.08.31,0,.47,0,.3-.34.66-.62,1-1,.58-.51.41-1.39,1-1.92,2.94-3.15,6.08-6.08,9.29-9a44.37,44.37,0,0,0,9.56-52.71c-2.34-4.5-2.14-7.88.11-12.41,9.06-18.28,7.62-36.47-2.21-54-1.81-3.23-2.38-5.89-1.12-9.41,4.78-13.33,3.67-26.75-.19-40.06a24.78,24.78,0,0,0-7.46-11.53c-5.18-4.68-3.07-15,3.78-16.62,14.72-3.52,29.23-7.89,44.71-7.91a384.34,384.34,0,0,1,79,7.72,209.49,209.49,0,0,1,20.37,5.47,13.81,13.81,0,0,0,8.45.14c22-6.59,44.63-9.64,67.47-11.39,9.07-.7,18.13-1.54,27.23-1.77,2.06-.05,4.2-.21,5.92,1.33V321.79c-1.43,1.33-3.22,1.26-5,1.27-14.55,0-29.14.74-43.63-.17-21.74-1.37-43.46-.29-65.18-.76a11.91,11.91,0,0,0-5.85.83c-2.92,3.67-4.93,8.6-7.45,13.16-20.65,37.49-48.36,68.39-85.66,89.74-49.81,52.72-48.81,31.06-91.57,44.8-7,4.44-13.71,9.39-20.68,13.93a35.79,35.79,0,0,1-10.32,5c-5.52,1.45-9.54-.5-11.34-5.93-2.55-7.7-2-15.42.62-23,.12-.11.32-.2.34-.33.07-.47.07-.94.1-1.39l1.08-1a4.5,4.5,0,0,0,.3-.35l0-1c.37-1.11,1.61-1.45,2.13-2.43l0-1c.45-.86,1.3-1.35,2-2.12l.21-1.49,3.38-3.14.16-1.41,8.36-7.74.13-1.46,1.38-1.28h1.4l9.11-8.44h1.45l4.18-3.87,1.07,0c1.28-.55,2-1.93,3.22-2.59l1,0a1.3,1.3,0,0,0,.41-.16c.6-.53,1.18-1.08,1.84-1.7l1.42-.09,2-1.84,1.5,0,1.34-1.24h1.45l1.38-1.28h1.44l1.35-1.25,1.49,0,1.34-1.24a3,3,0,0,0,1,0c.7-.27,1.31-.84,2.15-.58a2.94,2.94,0,0,1,2.14-.63c.39,0,.63-.66,1.18-.6.32,0,.64,0,1,0l1.39-1.29h1.45l.66-.62,1.46.05c.61,0,1.22.15,1.75-.41.34-.37.91-.06,1.34-.17s1-.8,1.67-.6c.55.15.87-.23,1.24-.59"/></g></svg>