<?xml version="1.0" encoding="utf-8" standalone="yes"?>
<!DOCTYPE svg PUBLIC "-//W3C//DTD SVG 1.1//EN" "http://www.w3.org/Graphics/SVG/1.1/DTD/svg11.dtd">
<!-- Generator: Adobe Illustrator 18.0.0, SVG Export Plug-In . SVG Version: 6.00 Build 0)  --><svg xmlns="http://www.w3.org/2000/svg" xmlns:xlink="http://www.w3.org/1999/xlink" version="1.1" id="Слой_2" x="0px" y="0px" viewBox="-46 171 1340 1213" enable-background="new -46 171 1340 1213" xml:space="preserve" style="zoom: 1;"><path fill="#329BB1" d="M1070.4,1242.9 H161.7 l19.2,-683.2 c0,0 3.7,-8.2 -2.7,-8.2 c-6.4,0 -2.7,-6.4 -11,-4.5 c-8.3,1.8 -19.2,2.1 -20,-0.3 c-0.8,-2.4 -5.5,-9.7 -5.5,-9.7 c-6.4,-0.8 -2.7,-5.5 -8.2,-12.8 c-5.5,-7.3 -12.8,-16.4 -8.2,-25.6 c4.5,-9.2 7.2,-6.4 -1.4,-6.4 s-12.3,-11.9 -18.6,-14.5 c-6.4,-2.7 -9.2,-11 -15.5,-18.2 c-6.4,-7.3 -3.7,-20 0,-19.2 c3.7,0.8 6.4,-0.8 7.3,-8.2 c0.8,-7.3 3.7,-9.2 10,-13.7 s6.4,-8.2 7.3,-14.5 c0.8,-6.4 12.8,6.4 17.4,0 c4.5,-6.4 13.7,-11 7.3,-11 s-9.2,8.2 -12.8,5.5 c-3.7,-2.7 -10,0 -7.3,-5.5 c2.7,-5.5 11.9,-3.7 12.8,-8.2 c0.8,-4.5 -5.5,-0.8 -8.2,-7.3 c-2.7,-6.4 5.5,-17.4 -8.2,-17.4 s-8.2,11.9 -18.2,10 s-12.8,-9.2 -20,-10 c-7.3,-0.8 -6.4,-8.2 -11.9,-12.8 c-5.5,-4.5 -15.5,-9.2 -19.2,-15.5 c-3.7,-6.4 -14.5,-2.7 -17.4,-8.2 c-2.8,-5.5 8.2,-14.5 5.5,-20 c-2.7,-5.5 -2.7,-5.5 -10,-11.9 c-7.3,-6.4 10,-9.2 0,-16.4 c-10,-7.3 -11,-7.3 -16.4,-9.2 s-0.8,-11 -7.3,-11.9 s-11.4,-3.5 -11.4,-3.5 s5.9,-3.7 3.2,-8.3 c-2.7,-4.5 -7.3,-16.4 -7.3,-20 s-4.5,-11 -5.5,-13.7 c-1,-2.7 3.7,-8.2 5.5,-13.7 s-1.1,-8.2 -5.6,-3.7 c-4.4,4.5 -22.7,-3.7 -13.6,-11 s179.9,6.4 327.8,10 c148,3.7 452,-6.4 452,-6.4 s4.5,5.5 6.4,9.2 s-0.8,8.2 3.7,9.2 c4.5,1 10,2.7 11.9,8.2 c1.8,5.5 7.3,13.7 11,14.5 c3.7,0.8 7.3,2.7 7.3,7.3 s4.5,13.7 11,12.8 c6.4,-0.8 4.5,5.5 4.5,5.5 s-14.5,42.1 -12.8,61.1 c1.7,19.1 6.4,34.7 12.8,42.1 c6.5,7.3 0.8,14.5 -0.8,17.4 c-1.7,2.8 7.3,14.5 12.8,19.2 c5.5,4.5 5.5,21 4.5,23.7 c-0.8,2.7 11.9,6.4 21,18.2 c9.2,11.9 16.4,14.5 16.4,14.5 s0.8,12.8 7.3,13.7 c6.4,0.8 11,3.7 13.7,10 c2.7,6.4 -0.8,5.5 13.7,16.4 s47.4,33.7 52.1,42.9 c4.7,9.2 6.4,21.9 6.4,29.2 s7.3,7.3 4.5,14.5 c-2.8,7.2 -5.5,11.9 -2.7,17.4 c2.8,5.5 2.7,8.2 5.5,18.2 c2.7,10 14.5,25.6 22.9,21.9 c8.2,-3.7 11.9,-13.7 16.4,-19.2 s17.4,-5.5 25.6,0 s13.7,1.8 21,6.4 c7.3,4.5 31.1,15.5 29.2,21 c-1.8,5.5 -18.2,20 -21,27.4 c-2.7,7.3 10,19.2 2.7,30.1 c-7.3,11 -14.5,27.1 -15.5,30.9 c-0.8,3.8 -3.7,17.5 -11,30.4 c-7.3,12.8 -6.4,41.1 3.7,50.3 c10,9.2 26.5,21 34.7,28.4 c8.2,7.3 23.7,25.6 31.1,26.5 c7.3,0.8 7.3,0.8 7.3,0.8 s-4.5,9.2 0,15.5 c4.5,6.4 13.7,7.3 18.2,3.7 c4.5,-3.7 21.9,6.4 31.1,14.5 c9.2,8.2 6.4,14.5 11.9,18.2 c5.5,3.7 13.7,11.9 21.9,12.8 c8.2,0.8 6.4,11 6.4,14.5 s7.3,5.5 9.2,11 c1.8,5.5 -3.7,8.2 -7.3,8.2 c-3.7,0 2.5,9.2 7.6,15.5 s16.9,31.1 12.4,36.6 c-4.5,5.5 -19.2,11 -19.2,15.5 c0,4.5 12.8,12.8 12.8,12.8 s-4.5,7.3 2.7,18.2 c7.2,10.9 14.5,20 14.5,22.9 c0,2.7 -6.4,8.2 0,13.7 c6.4,5.5 12.8,13.7 19.2,12.8 c6.4,-0.8 2.7,-8.2 0,-11 c-2.7,-2.8 -11.9,-13.7 -1.8,-12.8 s17.4,13.7 20,20 s3.7,10 8.2,6.4 s16.4,-0.8 13.7,5.5 c-2.7,6.4 -5.5,16.4 -6.4,21 c-0.8,4.5 -5.5,3.7 -8.2,7.3 c-2.7,3.7 -5.5,11 0,12.8 s12.8,3.7 10,7.3 c-2.8,3.7 -8.2,-1.8 -11.9,2.7 c-3.7,4.5 -2.7,13.7 1.8,18.2 c4.5,4.5 -3.7,10 -4.5,13.7 c-0.8,3.7 -2.7,25.6 -11,18.2 c-8.2,-7.3 -19.2,-28.4 -23.7,-11 c-4.5,17.4 -11,28.4 -14.5,33.7 c-3.7,5.5 -11.9,1.8 -8.2,-6.4 c3.7,-8.2 4.5,-23.7 -4.5,-20 c-9,3.7 -18.2,2.7 -12.8,11.9 c5.5,9.2 11,11.6 9.2,17.2 c-1.8,5.6 -5.5,6.5 -2.7,11.2 c2.7,4.5 12.8,22.9 2.7,22.9 c-10.2,0 -23.7,0 -15.5,6.4 s21.9,14.5 11,17.4 c-10.9,2.8 -17.4,-1.8 -21.9,0 c-4.5,1.8 -8.2,1.8 1.8,11.9 c10,10 21,18.2 11.9,22.9 c-9.2,4.5 -14.5,3.7 -15.5,11.9 c-1,8.2 -3.7,15.5 -6.4,16.4 s-135.1,5.5 -135.1,5.5 s5.5,-16.4 11.9,-25.6 s11.9,-6.4 15.5,-12.8 c3.7,-6.4 -1.8,-11.9 5.5,-15.5 s17.4,-10 17.4,-10 s-3.7,-6.4 3.7,-10 s10,-5.5 7.3,-11.9 c-2.7,-6.4 6.4,-15.5 -2.7,-19.2 c-9.2,-3.7 -12.8,-4.5 -13.7,-11.9 C1073,1247.5 1070.4,1242.9 1070.4,1242.9  z "></path><text stroke="none" style="outline-style:none;" id="text1" stroke-width="1px" x="589.404785px" font-weight="bold" text-rendering="geometricPrecision" font-family="ChalkboardSE-Bold" fill="#E98820" font-size="55em" y="1031.559814px" transform="" text-anchor="middle" font-style="italic">?✓</text></svg>