<svg xmlns="http://www.w3.org/2000/svg" viewBox="0 0 792 612"><defs><style>.cls-1{fill:#9a67a5;}.cls-2{fill:#090c0b;}.cls-3{fill:#86766a;}.cls-4{fill:#e0bb95;}.cls-5{fill:#fff;}.cls-6{fill:#986840;}.cls-7{fill:#e0bb95;}</style></defs><title>Thumbs down 1</title><g id="Layer_1" data-name="Layer 1"><path class="cls-1" d="M178.36,176.17q0-1.19,0-2.38l-1-1v-2.82l-1-1V150.77l1-1v-1.42c-.84-3.47.22-6.6,1.8-9.59,6.78-12.83,17.94-18.59,32-19.64,2.23-.17,4.48-.07,6.72-.07,63.68,0,127.36-.35,191,.15,30.45.24,60.65,3.79,89.91,13a15.84,15.84,0,0,0,9.41.2c23-6.54,46.58-9.89,70.42-11.54,14.36-1,28.7-2.07,43.1-1.79,2.35,0,4.86-.44,6.84,1.44q0,106.78,0,213.57c-.24.17-.48.48-.73.49-1.44,0-2.88,0-4.32,0h-119a1.45,1.45,0,0,0-.44.17l-1.25,1.31c0,.54.06,1-.42,1.33s-.54,1.06-.6,1.56L500,340.72l-.09,1-.94,1v.89l-1.94,2c0,.53,0,1-.43,1.32s-.51,1.07-.6,1.56l-1.77,1.77-.08,1-1.93,2v.91L490.54,356l-.34,1.3L487.48,360v1.27l-1.94,1.88-.09.8-2.72,2.71-.06,1-3.61,3.46c-.17.67-.15,1.22-.42,1.51-1.19,1.29-2.45,2.5-3.64,3.68,0,.41.07.84-.09,1-1.55,1.62-3.15,3.19-4.73,4.77L468.31,384l-.17,1.13-15.61,15.61-.77.08-5.66,5.66-1.35.13-2.86,2.85-1.06.1-2.71,2.72-1,.08-2,1.93h-.91L432.46,416l-1.3.34-1.7,1.7-1,.07-2,1.91-1,0a3,3,0,0,1-2,1l-1.7,1.7a2.22,2.22,0,0,0-2,1l-1,.06-1,1h-1.23l-1.47,1.88-1.24.15-1.7,1.7-1.09.13-2.86,2.85-.88.06-8.25,8.25,0,.87-3.73,3.73-.06,1-1.92,2-.06,1-1.74,1.74a2.72,2.72,0,0,1-1,2c-.17.13-.09.58-.16,1.19l-1.89,1.31V456l-1,1c0,.35.07.81-.09.95a4.08,4.08,0,0,0-1,2c-.2.53-.81.85-.83,1.59,0,.38-.5.74-.86,1.24v1.73l-1,1.11v.88l-1,1.07v1.87l-1,1.08v1.8l-1,1.16v1.8l-.75.75a12.78,12.78,0,0,0-.15,2.92L379,480v2.74l-1,1.1v3.76l-1,1.07v4.74l-1,1.09v5.68l-.73.73a8.11,8.11,0,0,0-.18,2.79c0,.8,0,1.6,0,2.4v2.68l-.82.82a1.48,1.48,0,0,0-.14.42c0,2.08,0,4.16,0,6.33l-.92,1.09v4.67l-1,1.09V527l-1,1.07v1.85l-1,1.1v1.84c-.47.49-.95.84-.95,1.6s-1.22,1-.92,2a13.17,13.17,0,0,1-1.92,2.12v1l-2.47,2.35-.85,0-2,1.91-1,.08a2.27,2.27,0,0,1-2,1l-.68.68a12.56,12.56,0,0,1-2.92.16l-1.08.91h-8.6l-1-.9h-3.76l-1.07-1h-1.86l-1.09-1h-1.76l-1.2-.92c-.95.26-1.25-.93-2-.93s-1.07-.54-1.57-.89-.92,0-1.29-.35c-.22-.24-.45-.45-.69-.69h-.92l-2-1.93-1-.1L322,536.29c-.54-.18-1.2-.07-1.64-.65a14.25,14.25,0,0,0-1.35-1.38h-.91l-12.94-12.95-.08-.93-1.93-2v-.91l-1.73-1.73c-.32-.48,0-1.26-.66-1.62s-.29-1.16-.68-1.64-.82-.57-.75-1.13c.1-.79-.59-1.05-1-1.55v-.92l-1-1.06V505.9a2.18,2.18,0,0,1-1-2l-.8-.8-.1-1.88-.82-1a15.78,15.78,0,0,1-.11-2.82l-.92-1.07V494.5l-1-1.07v-1.88l-1-1.06v-2.83l-.76-.76c-.48-1.3.08-2.75-.28-4.12l-.71-.71c-.43-1.66.15-3.41-.28-5.08l-.77-.77v-6.61l-1-1.14V450.27l.93-1v-2.38c-1-6.25.06-12.35,1.38-18.41a140.27,140.27,0,0,1,21-49.6c.78-1.15,1.9-2.22,1.59-4-2.92-1.74-6.74.54-9.53-1.95H192.33l-1-1h-2.83l-1.08-1h-1.77l-1.19-.92c-.95.26-1.25-.92-2-.93s-1.05-.7-1.57-.85a2.92,2.92,0,0,1-1.95-1.09h-.95l-3-2.87-.62-.09-2.66-2.18-.15-1.22-2.71-2.71-.06-1-1.92-2-.06-.93-1-1.1v-1.84c-1.14-.61-.86-1.64-.91-2.67l-.9-1.09V344.8l-1-1.12v-18.2l.93-1V323c-.57-4.34,1.15-8,3.38-11.53,1.34-2.13,3.28-4,3.51-6.92-1.23-2.92-3.49-5.46-5-8.43v-2.38l-1-1V290.9l-1-1.05v-3.78l-.69-.69c-.08-.12-.24-.25-.24-.37q0-8.56,0-17.11l1-1v-2.38c-.34-8,4.39-13.55,9.47-18.85,1.19-1.24,3-1.89,3.66-4-.54-4.57-5.16-8.35-3.53-13.67v-1.42l-1-1V210.29l1-1v-2.38c0-.86,0-1.72,0-2.58.87-7,5.56-11.91,9.43-17.27C182.28,183,178.42,180.37,178.36,176.17Z"/><path class="cls-2" d="M178.36,159.17q0-1.19,0-2.38l-1-1v-2.82l-1-1V133.77l1-1v-1.42c-.84-3.47.22-6.6,1.8-9.59,6.78-12.83,17.94-18.59,32-19.64,2.23-.17,4.48-.07,6.72-.07,63.68,0,127.36-.35,191,.15,30.45.24,60.65,3.79,89.91,13a15.84,15.84,0,0,0,9.41.2c23-6.54,46.58-9.89,70.42-11.54,14.36-1,28.7-2.07,43.1-1.79,2.35,0,4.86-.44,6.84,1.44q0,106.78,0,213.57c-.24.17-.48.48-.73.49-1.44,0-2.88,0-4.32,0h-119a1.45,1.45,0,0,0-.44.17l-1.25,1.31c0,.54.06,1-.42,1.33s-.54,1.06-.6,1.56L500,323.72l-.09,1-.94,1v.89l-1.94,2c0,.53,0,1-.43,1.32s-.51,1.07-.6,1.56l-1.77,1.77-.08,1-1.93,2v.91L490.54,339l-.34,1.3L487.48,343v1.27l-1.94,1.88-.09.8-2.72,2.71-.06,1-3.61,3.46c-.17.67-.15,1.22-.42,1.51-1.19,1.29-2.45,2.5-3.64,3.68,0,.41.07.84-.09,1-1.55,1.62-3.15,3.19-4.73,4.77L468.31,367l-.17,1.13-15.61,15.61-.77.08-5.66,5.66-1.35.13-2.86,2.85-1.06.1-2.71,2.72-1,.08-2,1.93h-.91L432.46,399l-1.3.34-1.7,1.7-1,.07-2,1.91-1,0a3,3,0,0,1-2,1l-1.7,1.7a2.22,2.22,0,0,0-2,1l-1,.06-1,1h-1.23l-1.47,1.88-1.24.15-1.7,1.7-1.09.13-2.86,2.85-.88.06-8.25,8.25,0,.87-3.73,3.73-.06,1-1.92,2-.06,1-1.74,1.74a2.72,2.72,0,0,1-1,2c-.17.13-.09.58-.16,1.19l-1.89,1.31V439l-1,1c0,.35.07.81-.09.95a4.08,4.08,0,0,0-1,2c-.2.53-.81.85-.83,1.59,0,.38-.5.74-.86,1.24v1.73l-1,1.11v.88l-1,1.07v1.87l-1,1.08v1.8l-1,1.16v1.8l-.75.75a12.78,12.78,0,0,0-.15,2.92L379,463v2.74l-1,1.1v3.76l-1,1.07v4.74l-1,1.09v5.68l-.73.73a8.11,8.11,0,0,0-.18,2.79c0,.8,0,1.6,0,2.4v2.68l-.82.82a1.48,1.48,0,0,0-.14.42c0,2.08,0,4.16,0,6.33l-.92,1.09v4.67l-1,1.09V510l-1,1.07v1.85l-1,1.1v1.84c-.47.49-.95.84-.95,1.6s-1.22,1-.92,2a13.17,13.17,0,0,1-1.92,2.12v1l-2.47,2.35-.85,0-2,1.91-1,.08a2.27,2.27,0,0,1-2,1l-.68.68a12.56,12.56,0,0,1-2.92.16l-1.08.91h-8.6l-1-.9h-3.76l-1.07-1h-1.86l-1.09-1h-1.76l-1.2-.92c-.95.26-1.25-.93-2-.93s-1.07-.54-1.57-.89-.92,0-1.29-.35c-.22-.24-.45-.45-.69-.69h-.92l-2-1.93-1-.1L322,519.29c-.54-.18-1.2-.07-1.64-.65a14.25,14.25,0,0,0-1.35-1.38h-.91l-12.94-12.95-.08-.93-1.93-2v-.91l-1.73-1.73c-.32-.48,0-1.26-.66-1.62s-.29-1.16-.68-1.64-.82-.57-.75-1.13c.1-.79-.59-1.05-1-1.55v-.92l-1-1.06V488.9a2.18,2.18,0,0,1-1-2l-.8-.8-.1-1.88-.82-1a15.78,15.78,0,0,1-.11-2.82l-.92-1.07V477.5l-1-1.07v-1.88l-1-1.06v-2.83l-.76-.76c-.48-1.3.08-2.75-.28-4.12l-.71-.71c-.43-1.66.15-3.41-.28-5.08l-.77-.77v-6.61l-1-1.14V433.27l.93-1v-2.38c-1-6.25.06-12.35,1.38-18.41a140.27,140.27,0,0,1,21-49.6c.78-1.15,1.9-2.22,1.59-4-2.92-1.74-6.74.54-9.53-1.95H192.33l-1-1h-2.83l-1.08-1h-1.77l-1.19-.92c-.95.26-1.25-.92-2-.93s-1.05-.7-1.57-.85a2.92,2.92,0,0,1-1.95-1.09h-.95l-3-2.87-.62-.09-2.66-2.18-.15-1.22-2.71-2.71-.06-1-1.92-2-.06-.93-1-1.1v-1.84c-1.14-.61-.86-1.64-.91-2.67l-.9-1.09V327.8l-1-1.12v-18.2l.93-1V306c-.57-4.34,1.15-8,3.38-11.53,1.34-2.13,3.28-4,3.51-6.92-1.23-2.92-3.49-5.46-5-8.43v-2.38l-1-1V273.9l-1-1.05v-3.78l-.69-.69c-.08-.12-.24-.25-.24-.37q0-8.56,0-17.11l1-1v-2.38c-.34-8,4.39-13.55,9.47-18.85,1.19-1.24,3-1.89,3.66-4-.54-4.57-5.16-8.35-3.53-13.67v-1.42l-1-1V193.29l1-1v-2.38c0-.86,0-1.72,0-2.58.87-7,5.56-11.91,9.43-17.27C182.28,166,178.42,163.37,178.36,159.17Z"/><path class="cls-3" d="M172.6,188h1.92a5.45,5.45,0,0,1,0,1.29,1,1,0,0,1-1.88,0A5.44,5.44,0,0,1,172.6,188Z"/><path class="cls-4" d="M608.44,142.85V278.21c-1.43,1.33-3.22,1.26-5,1.27-14.55,0-29.14.74-43.63-.17-21.74-1.37-43.46-.29-65.18-.76a11.91,11.91,0,0,0-5.85.83c-2.92,3.67-4.93,8.6-7.45,13.16C460.71,330,433,360.93,395.7,382.28c-26.43,15.13-40.82,37.79-46.26,67-1.52,8.18-2.43,16.44-3.83,24.64a35.79,35.79,0,0,1-3.35,11c-2.68,5-6.85,6.66-12.06,4.29-7.38-3.36-12.65-9-16.48-16.11,0-.16.07-.37,0-.47-.3-.37-.64-.69-.95-1,0-.51,0-1,0-1.47a4.5,4.5,0,0,0-.05-.46L312,469c-.56-1,0-2.17-.34-3.22l-.68-.68a10.88,10.88,0,0,1-.18-2.93l-.95-1.17c0-1.37,0-3,0-4.61l-.92-1.07v-11.4l-1-1.09V441l1-1V427.5l1-1.07v-5.7l.76-.76c.47-1.31-.07-2.76.29-4.13l.68-.68a1.3,1.3,0,0,0,.16-.41c0-.8,0-1.6,0-2.5l.9-1.1v-2.71l1-1.13V405.5l1-1.07v-1.88l1-1.05v-1.84l1-1.11v-1.83c.28-.28.6-.46.71-.73.28-.7.27-1.53,1-2a2.94,2.94,0,0,1,1-2c.29-.26-.05-.91.36-1.27.24-.21.45-.45.69-.68v-1.89l1-1.07v-.91l1-1c.43-.44.94-.8.89-1.56,0-.5.58-.71.79-1.1s.06-1.24.69-1.63.43-.79.41-1.31l1.95-2v-.89l.94-1,.09-1,2.71-2.71.09-1.05,2.86-2.86.1-1.06,2.71-2.71.09-1.05,2.86-2.86.1-1.05c.45-.45.89-.92,1.37-1.35.09-.08.31,0,.47,0,.3-.34.66-.62,1-1,.58-.51.41-1.39,1-1.92,2.94-3.15,6.08-6.08,9.29-9a44.37,44.37,0,0,0,9.56-52.71c-2.34-4.5-2.14-7.88.11-12.41,9.06-18.28,7.62-36.47-2.21-54-1.81-3.23-2.38-5.89-1.12-9.41,4.78-13.33,3.67-26.75-.19-40.06a24.78,24.78,0,0,0-7.46-11.53c-5.18-4.68-3.07-15,3.78-16.62,14.72-3.52,29.23-7.89,44.71-7.91a384.34,384.34,0,0,1,79,7.72,209.49,209.49,0,0,1,20.37,5.47,13.81,13.81,0,0,0,8.45.14c22-6.59,44.63-9.64,67.47-11.39,9.07-.7,18.13-1.54,27.23-1.77C604.57,141.46,606.71,141.31,608.44,142.85Z"/><path class="cls-5" d="M608.44,142.85H593.58l-1.06,1H579.13l-.78.78c-1.15.39-2.42.08-3.67.14s-2.24,0-3.36,0h-3.69l-.79.79a9.2,9.2,0,0,1-2.8.16c-.8,0-1.6,0-2.4,0a10,10,0,0,0-2.81.15l-.69.69a1.74,1.74,0,0,1-.43.11h-6.31l-1.07.93h-5.66l-1.07,1h-4.76l-1.06,1h-4.75l-.76.76c-1.3.48-2.74-.08-4.12.28l-.68.68c-1.36.46-2.81-.09-4.18.34l-.74.74h-2.77l-1.14,1h-2.78l-1.07,1h-1.88l-1.06,1h-2.79l-1.12,1h-1.82l-.73.73a10.86,10.86,0,0,1-2.91.18l-1.11-.91h-1.75l-1.13-1h-1.83l-1.06-1h-2.84l-1.06-1h-1.87l-.71-.71c-1-.49-2.17,0-3.16-.28l-.74-.74c-.91-.4-1.88,0-3.19-.4l-.82-.67h-3.67l-1.13-1h-3.75l-1.06-1h-3.8l-1.06-1H462l-.78-.78c-1.94-.4-4,.06-6-.24l-.75-.75a21.24,21.24,0,0,0-3.73-.12,14.25,14.25,0,0,1-3.28-.16l-.74-.74H438.2l-1.13-1H426.6l-1.06-1h-37.4l-1.05,1h-4.72l-1.12,1h-2.79l-.73.73c-1.36.47-2.81-.09-4.18.34l-.68.68a15.41,15.41,0,0,1-2.9.13l-1.07.92h-2.78l-1.07,1h-3.8l-1.06,1h-2.8l-1.12,1h-2.71l-1.47,1.37v1l-1,1.09v1.85c-.46.49-1,.83-.93,1.6a7.67,7.67,0,0,1-.06,1.32l-.74.74c-.33.92,0,1.88-.2,2.74.72.92,1.17,2.06,2.44,1.7,1.83,1.83,3.53,3.51,5.2,5.24.17.17.07.6.1,1l.94,1v.9l1,1.07v.9c.4.5,1,.78,1,1.57-.06.55.47.77.89,1.28l.12,3,.77.77a14.33,14.33,0,0,1,.14,2.91l.92,1.07v7.56l1,1.08v12.44l-1,1.05v4.72l-1,1.1v2.8l-.81.81c0,.36-.06.82-.1,1.27,0,.3,0,.76-.16.87-.75.49-.69,1.33-1,2a3.45,3.45,0,0,1-.7.72v2l2.83,2.83.11,1.07,1.7,1.7a2.25,2.25,0,0,0,1,2l.07,1,1,1v1.88l1,1.06v1.84l1,1.12v2.79l.83.83c.22,1.92-.05,4,.15,5.91l.77.77a1.71,1.71,0,0,1,.12.43c0,5.6,0,11.2,0,16.87l-.93,1.07v3.73l-1,1.07v2.83l-1,1,0,1c-.39.47-1,.77-.93,1.55s-.89.88-.93,1.52a1.39,1.39,0,0,1-.52,1.23c-.72.47-.23,1.51-1,2a9.2,9.2,0,0,0-1.37,1.34v.94l-.94,1v1.92c.63.75,1.49,1.24,1.89,2.14-.26,1.05,1.28,1.41,1,2.48l.91,1.13.05.9,1,1v1.88l1,1.06v1.87l.71.71a3.92,3.92,0,0,1,.21.87c0,1.42,0,2.85,0,4.16l.79.79a1.27,1.27,0,0,1,.16.41q0,5.52,0,11a1.24,1.24,0,0,1-.16.41l-.73.73v3.74l-1,1.13v2.79l-1,1.06v1.88l-1,1-.06,1c-.4.46-1,.78-.91,1.55,0,.13,0,.37-.12.42-1,.49-.59,1.76-1.36,2.32s-.21,1.52-1,2a8.9,8.9,0,0,0-1.37,1.3v1l-8.15,8.15h-1L344.95,355h-1.47v-1.73l1.88-1.47.16-1.23,1.7-1.7a2.19,2.19,0,0,1,1-2l.05-1,1-1V344l1-1,.07-1a2.29,2.29,0,0,0,1-1.95c1.07-.58.81-1.6.84-2.63l.91-1.09v-1.76l1-1.12v-7.6l1-1.05V310.38l-1-1.06v-4.7l-1-1.14v-1.81l-.74-.74a1.8,1.8,0,0,1-.16-.41c-.08-.61.22-1.31-.2-1.83a2.57,2.57,0,0,1-.81-1.61c0-.37-.54-.73-.86-1.12l0-.9-1.92-2c0-.51.06-1-.4-1.33a2.83,2.83,0,0,1-.5-.64v-1.83c.38-.65.9-.42,1.47-.49a14.13,14.13,0,0,0,1.23-1.34c.16-.22.09-.6.14-1.06l2.85-2.86.08-1,1.7-1.7a2.38,2.38,0,0,1,1.06-2V276.9l1-1.11V274l1-1.07v-2.83l1-1.08v-5.69l.72-.72a4.15,4.15,0,0,0,.2-.87c0-1.74,0-3.48,0-5.09l-.84-.84a20.4,20.4,0,0,1-.11-3.74c0-1.1,0-2.19,0-3.1l-.91-.91v-2.79l-1-1.11v-1.83l-1-1.07v-1.87l-.95-1-.08-1-1.71-1.71c-.21-.53-.09-1.17-.65-1.64-.86-.71-1.62-1.53-2.38-2.25v-1.05l-1.37-1.37-1.09-.07-1.29-1.57v-1.86c.11-.45,1.32-.7.81-1.7l2-2.13v-1.85l1-1.07a1.5,1.5,0,0,1,.73-1.61c.38-.6.13-1.25.24-2l.82-1a14.45,14.45,0,0,0,.12-2.82l.92-1.08V191.36l-.91-1v-2.81l-1-1.07v-2.83c-.39-.5-1.05-.77-1-1.56.07-.55-.53-.74-.73-1.13s-.19-.88-.38-1.28-.51-.42-.64-.7-.13-.94-.38-1.27a18.56,18.56,0,0,0-1.68-1.73v-.92l-6.19-6.16c-1.15-.26-1.32-.34-2.41-1.66v-2.85c.48-.49,1-.85.93-1.61s1-.84.92-1.52.5-1.1.94-1.59v-1.85l1-1.07v-2.83l1-1.06v-6.64l.89-1v-5.78l-.78-.78a19.15,19.15,0,0,1-.13-3.71,16.25,16.25,0,0,0-.15-3.29l-.69-.69a14.77,14.77,0,0,1-.13-2.91l-.92-1.07v-2.8c.18-.16.4-.51.63-.52,1.28-.05,2.56,0,3.84,0h68l.83.83a16.84,16.84,0,0,0,3.72.12c1.44,0,2.88,0,4.32,0,1.28,0,2.56,0,3.84,0a19.23,19.23,0,0,1,3.74.11l.72.72a1.67,1.67,0,0,0,.43.12h9.19l1.08.93h7.57l1.08,1h5.71l1.06,1h4.72l1.11,1h4.71l.73.73c1.36.48,2.81-.08,4.18.34l.68.68a14.59,14.59,0,0,0,2.91.13l1.07.92h3.73l1.08,1h2.83l1.06,1H487l1.11,1h2.79l.81.81c.37,0,.82.05,1.28.1.3,0,.76,0,.87.17.49.75,1.34.67,2,1a3.59,3.59,0,0,1,.72.7h2.82l1.07,1h7.65l1-1H511l1.11-1H514c.6-1.12,1.62-.88,2.67-.91l1.11-.89h1.73l1.15-1h2.77l1.07-1h3.79l1.06-1h2.83l.77-.77c1.29-.48,2.74.08,4.11-.27l.72-.72c1.65-.44,3.41.14,5.08-.28l.7-.7a1.68,1.68,0,0,1,.43-.12h5.35l1.07-.93H556l1.07-1h6.67l1.06-1h8.59l.7-.7a1.57,1.57,0,0,1,.38-.23,1.88,1.88,0,0,1,.48,0h11.51a2.2,2.2,0,0,0,.44-.09l.68-.68c3.88-.24,15.4-.26,20.46,0,.13.12.35.23.35.34Q608.45,134,608.44,142.85Z"/><path class="cls-6" d="M313.72,473.09c.16,0,.39-.07.47,0,.81.77,1.59,1.57,2.4,2.38v.9l9.21,9.21h.89l1.71,1.71,1.3.34c.58,1.08,1.62.79,2.63.83l1.08.91h1.88l1-.9h1.93l2.33-2.51,0-.82,1-1v-.92l1-1.06v-1.86l.71-.71c.5-1,0-2.17.34-3.22l.69-.69a11.59,11.59,0,0,0,.16-2.8,6.79,6.79,0,0,1,.15-2.3l.75-.75v-5.66l1-1.12v-5.68l1-1.06V451.5l1-1.07v-3.78l.71-.71c.4-.9.13-1.86.23-3l.83-1.06a13,13,0,0,0,.12-2.8l.9-1.09v-1.77l1-1.11v-2.8l1-1.07v-.91l1-1.08v-1.85l.81-.81c0-.35.1-.8.1-1.26a1.49,1.49,0,0,1,.47-1.26,1.24,1.24,0,0,0,.47-.75,1.42,1.42,0,0,1,.56-1.21.81.81,0,0,0,.42-.79c-.13-.79.58-1,.95-1.62v-.85l1-1.07V417c.34-.4.88-.74.9-1.11a2.6,2.6,0,0,1,.79-1.62,3.46,3.46,0,0,0,.37-1.28l1.7-1.7.09-1,1.93-2v-.91l1.71-1.71.25-1,13.16-13.16.79-.07,2.71-2.72,1-.08,2-1.93h.91a13.78,13.78,0,0,0,1.36-1.39c.44-.59,1.12-.42,1.64-.65l1.71-1.71,1-.07,1-1h1.22l1.47-1.89,1.24-.14,1.7-1.7,1.24-.16,1.46-1.88h1.24l1-1,1-.06,1.71-1.71c.51-.26,1.17-.08,1.64-.65.72-.86,1.55-1.61,2.33-2.39h1l1.7-1.7,1.3-.34,2.71-2.72,1,0,3.51-3.62c.74-.3,1.35-.2,1.85-.73,1.65-1.74,3.38-3.41,5.07-5.11l.9-.14c3.13-2.89,13.57-13.28,18-17.88,0-.31-.06-.73.11-.91,1.88-1.94,3.81-3.85,5.64-5.67,0-.46,0-.88.13-1.05,1.21-1.28,2.47-2.51,3.72-3.76v-1l2.75-2.68c.09-2,2.12-2.6,3-4.32v-1l1.88-1.47.16-1.24,1.7-1.7.15-1.24,1.89-1.47V309.4a14.43,14.43,0,0,0,1.92-2.09l.12-.91,1.7-1.7.13-1.24L475,302v-1.21l.95-1,.08-1,1.7-1.7.34-1.3c1.13-.53.5-2.18,1.71-2.66v-.92l1-1.07v-.92l1.73-1.73c.34-.47,0-1.25.66-1.62s.31-1.16.68-1.64.82-.57.75-1.12c-.11-.8.61-1,1-1.63v-.84l1-1.07v-.92c.76-.61,1.34-1.31,1-2.35h67.63l1,.94h52.3q0,9.36,0,18.72c-.25.16-.5.45-.76.46-1.44,0-2.88,0-4.32,0H498.64l-1,.86a2.15,2.15,0,0,0-1.94,1h-.91l-1.07,1h-.93l-6.14,6.14c-.05.77-.18,1.54-1,1.85l-.06,1.07-1.92,2-.06.91c-.33.41-.84.77-.85,1.14a2.66,2.66,0,0,1-.82,1.61,3.67,3.67,0,0,0-.36,1.27l-1.7,1.7,0,1-1.91,2-.08,1-1.7,1.7c0,1.44-1.24,2.08-2.05,3v.91l-1.93,2-.09,1-1.71,1.71c-.2.53-.09,1.18-.65,1.64-.86.71-1.63,1.52-2.37,2.23v1.07L463.56,341l-.09,1c-1.06,1.06-2.15,2.22-3.32,3.29-.53.48-.47,1.1-.59,1.58L453,353.45l-.09.72-14.2,14.2-.53.07a1.69,1.69,0,0,0-.39.22l-5.43,5.43-1.09.14-2.86,2.85-1,.07-2.71,2.72-1.22.14-1.33,1.89h-1.4l-1.7,1.7c-.43.11-1,.09-1.27.37a2.29,2.29,0,0,1-1.88.87l-1.84,1.84h-.91l-1.07,1h-.93l-1.76,1.76a2.92,2.92,0,0,0-2,.95c-.12.17-.57.12-.87.16a12.38,12.38,0,0,0-2.11,1.91h-.92l-2,1.93-1,.09-1.7,1.7-1,.15c-1.43,1.14-2.63,2.62-4,3.82l-1,.11L384,409l-.37,1.43-3.68,3.57v1l-2.73,2.73-.13.9a13.4,13.4,0,0,1-1.91,2.1v.93l-1,1.06v.91l-1.72,1.72-.33,1.29c-1.12.53-.53,2.14-1.68,2.69-.14.07-.06.59-.09.94l-1,1v.92l-1,1-.05,1c-.39.47-1,.77-.92,1.55,0,.14,0,.38-.11.42-.95.5-.62,1.72-1.35,2.33-.12.1-.23.22-.4.4v1.82l-1,1.1-.06.93-1,1v1.88l-1,1.06v1.83l-1,1.13v1.82l-.74.74a11.47,11.47,0,0,0-.17,2.92l-.9,1.09V459l-1,1.12v2.79l-1,1.06v3.8l-1,1.07v4.74l-.81.81c-.32,1.92.05,4-.18,5.94l-.74.74a10.2,10.2,0,0,0-.15,2.81c0,.8,0,1.6,0,2.4a9,9,0,0,1-.16,2.8l-.74.74v6.63l-1,1.12v4.72l-1,1.06v2.83l-.95,1-.07,1-1.36,1.36h-1.91l-1-1h-2.84a2.19,2.19,0,0,0-2-1l-.8-.8-1.79-.09a10.12,10.12,0,0,1-2.05-1.83l-1-.06-1-1H334l-1.92-1.94-.75-.09-9.84-9.84-.13-.91a14.16,14.16,0,0,0-1.92-2.09V488l-1-1,0-1c-.39-.47-1-.77-.92-1.55,0-.14,0-.38-.11-.42-.95-.5-.62-1.72-1.35-2.33-.12-.1-.23-.22-.4-.4v-1.81l-1-1.14v-1.82l-1-1.06Z"/><path class="cls-6" d="M183.16,316.61v6.22l1,1.06v1.8c.35.43.87.78.88,1.16a2.64,2.64,0,0,0,.81,1.61,3.61,3.61,0,0,1,.36,1.28l3.05,3.06a3.13,3.13,0,0,1,2,1.06h1.84l1.09,1H197l1.05,1H320.88l1.05-1h2.87a2.16,2.16,0,0,1,2-1,2.75,2.75,0,0,1,1.55-.93c1-.15,1.46-1.14,2.11-1.81S332,330,332,328.84c0-.73,1.19-1.06.92-2l.93-1.16v-2.76l1-1.06v-5.26c-1.84-1.64-4.13-1.54-6.36-1.54q-69.48,0-139,0C187.29,315.07,185,315,183.16,316.61Z"/><path class="cls-4" d="M338.68,259v-7.18l-1-1v-1.89c-.61-.54-1.22-1.05-.94-1.89-1.22-1.22-2.4-2.3-3.45-3.5a4.18,4.18,0,0,0-2-1c-.27-.1-.46-.43-.74-.71h-1.82l-1.12-1H195.13l-.79.79-2.18.25a2.41,2.41,0,0,1-2,1l-1.7,1.7c-1.28.14-1.28.14-1.5,1.21,0,.14-.09.28-.13.42l-1.7,1.7a2.16,2.16,0,0,1-1,2v1.88l-1,1V259c1.84,1.64,4.13,1.54,6.36,1.54q71.4,0,142.8,0C334.55,260.55,336.84,260.65,338.68,259Z"/><path class="cls-6" d="M338.68,259H183.16v5.26l1,1v2.85c.61.54,1.21,1.06.94,1.89l1.78,1.78c.32,1.49.32,1.49,1.63,1.63l1.7,1.7a2.42,2.42,0,0,1,2,1.07H194l1.13,1H327.63l1.12-1h1.82c.28-.28.47-.61.74-.71a4.18,4.18,0,0,0,2-1c1.05-1.2,2.24-2.28,3.37-3.41a2.16,2.16,0,0,1,1-2v-1.88l1-1Z"/><path class="cls-4" d="M183.16,316.61H334.84v-4.3l-1-1.06v-2.82c-.42-.5-1-.8-1-1.58s-1.2-1.06-.94-2c-.28-.36-.55-.74-.85-1.09a5.5,5.5,0,0,0-.68-.68c-.72-.6-1.16-1.73-2.12-1.78s-1.39-1.38-2.48-1l-1.11-.95h-1.84l-1.05-1H196.16l-1.05,1h-1.85l-1.09,1h-1.84l-5.13,5.13a2.21,2.21,0,0,1-1,2v2.84l-1,1.06Z"/><path class="cls-7" d="M332.92,201.41v-7.18l-1-1.06v-1.86c-.42-.49-1.05-.81-.94-1.58a.77.77,0,0,0-.45-.77c-.77-.44-.25-1.52-1-2a7.24,7.24,0,0,1-1-.91l-1-.09-1.76-1.76H324l-1.16-1h-2.76l-1.08-1H207.68l-1,1h-2.83l-1.08,1h-1.85l-1.75,1.75c-.53.21-1.21.05-1.63.65a12.94,12.94,0,0,1-1,1c-.31.34-.57.72-.86,1.08.26.94-1,1.22-.94,2s-.53,1.09-1,1.58V196l-1,1.06v4.3c1.84,1.64,4.13,1.54,6.36,1.54q63.72,0,127.44,0C328.79,202.94,331.08,203.05,332.92,201.41Z"/><path class="cls-6" d="M332.92,201.41H192.76v3.34l1,1.06v3.78c.43.49,1,.81,1,1.58s1.2,1.06.94,2c.28.36.54.75.86,1.08.77.81,1.58,1.59,2.37,2.38a2.28,2.28,0,0,1,2,1l1,.08,1,.95h1.87l1,1H320.9l1.08-1h1.85c.49-.45.83-1,1.59-.95s1.06-1.19,2-.93a6.61,6.61,0,0,0,1.75-1.56,9.33,9.33,0,0,0,.86-1.08c-.26-.94,1-1.22.94-2s.54-1.08,1-1.6v-1.84l1-1.06Z"/><path class="cls-6" d="M196.6,141.89v6.22l1,1.06V151l1,1.13v1.82c.85.85,1.61,1.67,2.44,2.42s1.16,1.73,2.12,1.78,1.39,1.38,2.48,1l1.1,1h2.81l1,1h98.82l1.08-1h2.81c.49-.45.83-1,1.59-.95s1.06-1.19,2-.93c.36-.29.74-.56,1.07-.88.81-.78,1.59-1.58,2.38-2.37a2.23,2.23,0,0,1,1-2v-1.88l1-1.06v-8.14c-1.84-1.64-4.13-1.54-6.36-1.54q-56.52,0-113,0C200.73,140.35,198.44,140.24,196.6,141.89Z"/><path class="cls-7" d="M196.6,141.89H322.36v-7.18l-1-1.06v-1.88a2.23,2.23,0,0,1-1-2c-.68-.68-1.35-1.37-2-2-.45-.43-.94-.81-1.41-1.21-1.06.29-1.41-1.26-2.48-1l-1.2-.92h-1.76l-1.08-1H210.56l-1,1h-2.88a2.14,2.14,0,0,1-2,1,2.41,2.41,0,0,1-1.55.92c-.83.05-1.21.94-1.78,1.46-.94.87-1.82,1.8-2.78,2.76v1.82l-1,1.13v1.83l-1,1.06Z"/><path class="cls-6" d="M343.48,355a5.45,5.45,0,0,1,0,1.29.76.76,0,0,1-.94.63,5.44,5.44,0,0,1,0-1.29A.76.76,0,0,1,343.48,355Z"/><path class="cls-6" d="M342.52,356.93c-.13.77-.19.83-1,1C341.69,357.12,341.75,357.05,342.52,356.93Z"/></g></svg>